<mxfile host="65bd71144e">
    <diagram id="C5RBs43oDa-KdzZeNtuy" name="Page-1">
        <mxGraphModel dx="404" dy="578" grid="1" gridSize="10" guides="1" tooltips="1" connect="1" arrows="1" fold="1" page="1" pageScale="1" pageWidth="827" pageHeight="1169" math="0" shadow="0">
            <root>
                <mxCell id="WIyWlLk6GJQsqaUBKTNV-0"/>
                <mxCell id="WIyWlLk6GJQsqaUBKTNV-1" parent="WIyWlLk6GJQsqaUBKTNV-0"/>
                <mxCell id="nCoyNoLL6VT5nCh0kXBd-9" style="edgeStyle=orthogonalEdgeStyle;rounded=0;orthogonalLoop=1;jettySize=auto;html=1;exitX=0.5;exitY=1;exitDx=0;exitDy=0;fontSize=7;" parent="WIyWlLk6GJQsqaUBKTNV-1" source="WIyWlLk6GJQsqaUBKTNV-3" target="nCoyNoLL6VT5nCh0kXBd-0" edge="1">
                    <mxGeometry relative="1" as="geometry"/>
                </mxCell>
                <mxCell id="WIyWlLk6GJQsqaUBKTNV-3" value="Page loads" style="rounded=1;whiteSpace=wrap;html=1;fontSize=10;glass=0;strokeWidth=1;shadow=0;fillColor=#60a917;strokeColor=#2D7600;fontColor=#ffffff;" parent="WIyWlLk6GJQsqaUBKTNV-1" vertex="1">
                    <mxGeometry x="160" y="100" width="120" height="40" as="geometry"/>
                </mxCell>
                <mxCell id="nCoyNoLL6VT5nCh0kXBd-0" value="Get current location to use as placeholder on the country search box" style="rounded=0;whiteSpace=wrap;html=1;fontSize=10;fillColor=#60a917;strokeColor=#2D7600;fontColor=#ffffff;" parent="WIyWlLk6GJQsqaUBKTNV-1" vertex="1">
                    <mxGeometry x="160" y="170" width="120" height="60" as="geometry"/>
                </mxCell>
                <mxCell id="nCoyNoLL6VT5nCh0kXBd-2" value="ASYNC" style="ellipse;whiteSpace=wrap;html=1;aspect=fixed;fontSize=7;fillColor=#1ba1e2;strokeColor=#006EAF;fontColor=#ffffff;" parent="WIyWlLk6GJQsqaUBKTNV-1" vertex="1">
                    <mxGeometry x="140" y="150" width="30" height="30" as="geometry"/>
                </mxCell>
                <mxCell id="nCoyNoLL6VT5nCh0kXBd-8" style="edgeStyle=orthogonalEdgeStyle;rounded=0;orthogonalLoop=1;jettySize=auto;html=1;exitX=0.5;exitY=1;exitDx=0;exitDy=0;entryX=0.5;entryY=0;entryDx=0;entryDy=0;fontSize=7;" parent="WIyWlLk6GJQsqaUBKTNV-1" source="nCoyNoLL6VT5nCh0kXBd-4" target="nCoyNoLL6VT5nCh0kXBd-6" edge="1">
                    <mxGeometry relative="1" as="geometry"/>
                </mxCell>
                <mxCell id="nCoyNoLL6VT5nCh0kXBd-4" value="User inputs country and clicks search button" style="rounded=1;whiteSpace=wrap;html=1;fontSize=10;glass=0;strokeWidth=1;shadow=0;fillColor=#60a917;strokeColor=#2D7600;fontColor=#ffffff;" parent="WIyWlLk6GJQsqaUBKTNV-1" vertex="1">
                    <mxGeometry x="160" y="260" width="120" height="40" as="geometry"/>
                </mxCell>
                <mxCell id="nCoyNoLL6VT5nCh0kXBd-5" value="Event handler" style="endArrow=none;dashed=1;html=1;fontSize=8;exitX=0.5;exitY=0;exitDx=0;exitDy=0;entryX=0.5;entryY=1;entryDx=0;entryDy=0;startArrow=classic;startFill=1;labelBorderColor=#000000;" parent="WIyWlLk6GJQsqaUBKTNV-1" source="nCoyNoLL6VT5nCh0kXBd-4" target="nCoyNoLL6VT5nCh0kXBd-0" edge="1">
                    <mxGeometry x="0.3333" y="-30" width="50" height="50" relative="1" as="geometry">
                        <mxPoint x="370" y="310" as="sourcePoint"/>
                        <mxPoint x="420" y="260" as="targetPoint"/>
                        <mxPoint as="offset"/>
                    </mxGeometry>
                </mxCell>
                <mxCell id="nCoyNoLL6VT5nCh0kXBd-12" style="edgeStyle=orthogonalEdgeStyle;rounded=0;orthogonalLoop=1;jettySize=auto;html=1;exitX=0.5;exitY=1;exitDx=0;exitDy=0;fontSize=7;startArrow=none;startFill=0;" parent="WIyWlLk6GJQsqaUBKTNV-1" source="nCoyNoLL6VT5nCh0kXBd-6" target="nCoyNoLL6VT5nCh0kXBd-11" edge="1">
                    <mxGeometry relative="1" as="geometry"/>
                </mxCell>
                <mxCell id="nCoyNoLL6VT5nCh0kXBd-6" value="Fetch country COVID-19 data from API" style="rounded=0;whiteSpace=wrap;html=1;fontSize=10;fillColor=#60a917;strokeColor=#2D7600;fontColor=#ffffff;" parent="WIyWlLk6GJQsqaUBKTNV-1" vertex="1">
                    <mxGeometry x="160" y="330" width="120" height="60" as="geometry"/>
                </mxCell>
                <mxCell id="nCoyNoLL6VT5nCh0kXBd-7" value="ASYNC" style="ellipse;whiteSpace=wrap;html=1;aspect=fixed;fontSize=7;fillColor=#1ba1e2;strokeColor=#006EAF;fontColor=#ffffff;" parent="WIyWlLk6GJQsqaUBKTNV-1" vertex="1">
                    <mxGeometry x="140" y="320" width="30" height="30" as="geometry"/>
                </mxCell>
                <mxCell id="nCoyNoLL6VT5nCh0kXBd-51" style="edgeStyle=orthogonalEdgeStyle;rounded=0;orthogonalLoop=1;jettySize=auto;html=1;exitX=0.5;exitY=1;exitDx=0;exitDy=0;entryX=0.5;entryY=0;entryDx=0;entryDy=0;fontSize=8;startArrow=none;startFill=0;endArrow=classic;endFill=1;" parent="WIyWlLk6GJQsqaUBKTNV-1" source="nCoyNoLL6VT5nCh0kXBd-11" target="nCoyNoLL6VT5nCh0kXBd-50" edge="1">
                    <mxGeometry relative="1" as="geometry">
                        <Array as="points">
                            <mxPoint x="220" y="490"/>
                            <mxPoint x="300" y="490"/>
                        </Array>
                    </mxGeometry>
                </mxCell>
                <mxCell id="nCoyNoLL6VT5nCh0kXBd-11" value="&lt;span style=&quot;color: rgb(0 , 0 , 0) ; font-family: &amp;#34;helvetica&amp;#34; ; font-size: 10px ; font-style: normal ; font-weight: 400 ; letter-spacing: normal ; text-align: center ; text-indent: 0px ; text-transform: none ; word-spacing: 0px ; display: inline ; float: none&quot;&gt;Render COVID-19 information about country and states&lt;/span&gt;" style="rounded=0;whiteSpace=wrap;html=1;fontSize=7;fillColor=#d5e8d4;strokeColor=#82b366;labelBackgroundColor=none;" parent="WIyWlLk6GJQsqaUBKTNV-1" vertex="1">
                    <mxGeometry x="160" y="420" width="120" height="60" as="geometry"/>
                </mxCell>
                <mxCell id="nCoyNoLL6VT5nCh0kXBd-15" style="edgeStyle=orthogonalEdgeStyle;rounded=0;orthogonalLoop=1;jettySize=auto;html=1;exitX=0;exitY=0.5;exitDx=0;exitDy=0;entryX=0;entryY=0.5;entryDx=0;entryDy=0;fontSize=7;startArrow=none;startFill=0;dashed=1;" parent="WIyWlLk6GJQsqaUBKTNV-1" source="nCoyNoLL6VT5nCh0kXBd-28" target="nCoyNoLL6VT5nCh0kXBd-4" edge="1">
                    <mxGeometry relative="1" as="geometry">
                        <Array as="points">
                            <mxPoint x="120" y="680"/>
                            <mxPoint x="120" y="280"/>
                        </Array>
                    </mxGeometry>
                </mxCell>
                <mxCell id="nCoyNoLL6VT5nCh0kXBd-22" value="Maximum: 3 countries" style="edgeLabel;html=1;align=center;verticalAlign=middle;resizable=0;points=[];fontSize=8;labelBackgroundColor=#ffffff;labelBorderColor=#000000;" parent="nCoyNoLL6VT5nCh0kXBd-15" vertex="1" connectable="0">
                    <mxGeometry x="0.1809" y="2" relative="1" as="geometry">
                        <mxPoint y="121" as="offset"/>
                    </mxGeometry>
                </mxCell>
                <mxCell id="nCoyNoLL6VT5nCh0kXBd-13" value="&lt;span style=&quot;color: rgb(0 , 0 , 0) ; font-family: &amp;#34;helvetica&amp;#34; ; font-size: 10px ; font-style: normal ; font-weight: 400 ; letter-spacing: normal ; text-align: center ; text-indent: 0px ; text-transform: none ; word-spacing: 0px ; display: inline ; float: none&quot;&gt;Render button to add new country to compare&lt;/span&gt;" style="rounded=0;whiteSpace=wrap;html=1;fontSize=7;fillColor=#d5e8d4;strokeColor=#82b366;labelBackgroundColor=none;" parent="WIyWlLk6GJQsqaUBKTNV-1" vertex="1">
                    <mxGeometry x="160" y="570" width="120" height="60" as="geometry"/>
                </mxCell>
                <mxCell id="nCoyNoLL6VT5nCh0kXBd-23" value="&lt;span style=&quot;color: rgb(0 , 0 , 0) ; font-family: &amp;#34;helvetica&amp;#34; ; font-size: 10px ; font-style: normal ; font-weight: 400 ; letter-spacing: normal ; text-align: center ; text-indent: 0px ; text-transform: none ; word-spacing: 0px ; display: inline ; float: none&quot;&gt;Render Close button on country card&lt;/span&gt;" style="rounded=0;whiteSpace=wrap;html=1;fontSize=7;fillColor=#d5e8d4;strokeColor=#82b366;labelBackgroundColor=none;" parent="WIyWlLk6GJQsqaUBKTNV-1" vertex="1">
                    <mxGeometry x="310" y="570" width="120" height="60" as="geometry"/>
                </mxCell>
                <mxCell id="nCoyNoLL6VT5nCh0kXBd-25" value="&lt;span style=&quot;color: rgb(0 , 0 , 0) ; font-family: &amp;#34;helvetica&amp;#34; ; font-size: 10px ; font-style: normal ; font-weight: 400 ; letter-spacing: normal ; text-align: center ; text-indent: 0px ; text-transform: none ; word-spacing: 0px ; display: inline ; float: none&quot;&gt;Render Reset button&lt;/span&gt;" style="rounded=0;whiteSpace=wrap;html=1;fontSize=7;fillColor=#d5e8d4;strokeColor=#82b366;labelBackgroundColor=none;" parent="WIyWlLk6GJQsqaUBKTNV-1" vertex="1">
                    <mxGeometry x="460" y="570" width="120" height="60" as="geometry"/>
                </mxCell>
                <mxCell id="nCoyNoLL6VT5nCh0kXBd-31" style="edgeStyle=orthogonalEdgeStyle;rounded=0;orthogonalLoop=1;jettySize=auto;html=1;exitX=0.5;exitY=1;exitDx=0;exitDy=0;entryX=0.5;entryY=0;entryDx=0;entryDy=0;fontSize=8;startArrow=none;startFill=0;" parent="WIyWlLk6GJQsqaUBKTNV-1" source="nCoyNoLL6VT5nCh0kXBd-28" target="nCoyNoLL6VT5nCh0kXBd-30" edge="1">
                    <mxGeometry relative="1" as="geometry"/>
                </mxCell>
                <mxCell id="nCoyNoLL6VT5nCh0kXBd-28" value="User adds new country" style="rounded=1;whiteSpace=wrap;html=1;fontSize=10;glass=0;strokeWidth=1;shadow=0;fillColor=#60a917;strokeColor=#2D7600;fontColor=#ffffff;" parent="WIyWlLk6GJQsqaUBKTNV-1" vertex="1">
                    <mxGeometry x="160" y="660" width="120" height="40" as="geometry"/>
                </mxCell>
                <mxCell id="nCoyNoLL6VT5nCh0kXBd-29" value="Event handler" style="endArrow=none;dashed=1;html=1;fontSize=8;exitX=0.5;exitY=0;exitDx=0;exitDy=0;entryX=0.5;entryY=1;entryDx=0;entryDy=0;startArrow=classic;startFill=1;labelBorderColor=#000000;" parent="WIyWlLk6GJQsqaUBKTNV-1" edge="1">
                    <mxGeometry x="0.3333" y="-30" width="50" height="50" relative="1" as="geometry">
                        <mxPoint x="219.71" y="660" as="sourcePoint"/>
                        <mxPoint x="219.71" y="630" as="targetPoint"/>
                        <mxPoint as="offset"/>
                    </mxGeometry>
                </mxCell>
                <mxCell id="nCoyNoLL6VT5nCh0kXBd-30" value="&lt;span style=&quot;color: rgb(0 , 0 , 0) ; font-family: &amp;#34;helvetica&amp;#34; ; font-size: 10px ; font-style: normal ; font-weight: 400 ; letter-spacing: normal ; text-align: center ; text-indent: 0px ; text-transform: none ; word-spacing: 0px ; display: inline ; float: none&quot;&gt;Render comparison information between countries&lt;/span&gt;" style="rounded=0;whiteSpace=wrap;html=1;fontSize=7;fillColor=#d5e8d4;strokeColor=#82b366;labelBackgroundColor=none;" parent="WIyWlLk6GJQsqaUBKTNV-1" vertex="1">
                    <mxGeometry x="160" y="730" width="120" height="60" as="geometry"/>
                </mxCell>
                <mxCell id="nCoyNoLL6VT5nCh0kXBd-38" style="edgeStyle=orthogonalEdgeStyle;rounded=0;orthogonalLoop=1;jettySize=auto;html=1;exitX=0.5;exitY=1;exitDx=0;exitDy=0;entryX=0.5;entryY=0;entryDx=0;entryDy=0;fontSize=8;startArrow=none;startFill=0;" parent="WIyWlLk6GJQsqaUBKTNV-1" source="nCoyNoLL6VT5nCh0kXBd-32" target="nCoyNoLL6VT5nCh0kXBd-33" edge="1">
                    <mxGeometry relative="1" as="geometry"/>
                </mxCell>
                <mxCell id="nCoyNoLL6VT5nCh0kXBd-32" value="User clicks on Close button" style="rounded=1;whiteSpace=wrap;html=1;fontSize=10;glass=0;strokeWidth=1;shadow=0;fillColor=#60a917;strokeColor=#2D7600;fontColor=#ffffff;" parent="WIyWlLk6GJQsqaUBKTNV-1" vertex="1">
                    <mxGeometry x="310" y="660" width="120" height="40" as="geometry"/>
                </mxCell>
                <mxCell id="nCoyNoLL6VT5nCh0kXBd-33" value="&lt;span style=&quot;color: rgb(0 , 0 , 0) ; font-family: &amp;#34;helvetica&amp;#34; ; font-size: 10px ; font-style: normal ; font-weight: 400 ; letter-spacing: normal ; text-align: center ; text-indent: 0px ; text-transform: none ; word-spacing: 0px ; display: inline ; float: none&quot;&gt;Delete country card and comparison information&lt;/span&gt;" style="rounded=0;whiteSpace=wrap;html=1;fontSize=7;fillColor=#d5e8d4;strokeColor=#82b366;labelBackgroundColor=none;" parent="WIyWlLk6GJQsqaUBKTNV-1" vertex="1">
                    <mxGeometry x="310" y="730" width="120" height="60" as="geometry"/>
                </mxCell>
                <mxCell id="nCoyNoLL6VT5nCh0kXBd-39" style="edgeStyle=orthogonalEdgeStyle;rounded=0;orthogonalLoop=1;jettySize=auto;html=1;exitX=0.5;exitY=1;exitDx=0;exitDy=0;entryX=0.5;entryY=0;entryDx=0;entryDy=0;fontSize=8;startArrow=none;startFill=0;" parent="WIyWlLk6GJQsqaUBKTNV-1" source="nCoyNoLL6VT5nCh0kXBd-34" target="nCoyNoLL6VT5nCh0kXBd-35" edge="1">
                    <mxGeometry relative="1" as="geometry"/>
                </mxCell>
                <mxCell id="nCoyNoLL6VT5nCh0kXBd-34" value="User clicks on Reset button" style="rounded=1;whiteSpace=wrap;html=1;fontSize=10;glass=0;strokeWidth=1;shadow=0;fillColor=#60a917;strokeColor=#2D7600;fontColor=#ffffff;" parent="WIyWlLk6GJQsqaUBKTNV-1" vertex="1">
                    <mxGeometry x="460" y="660" width="120" height="40" as="geometry"/>
                </mxCell>
                <mxCell id="nCoyNoLL6VT5nCh0kXBd-35" value="&lt;span style=&quot;color: rgb(0 , 0 , 0) ; font-family: &amp;#34;helvetica&amp;#34; ; font-size: 10px ; font-style: normal ; font-weight: 400 ; letter-spacing: normal ; text-align: center ; text-indent: 0px ; text-transform: none ; word-spacing: 0px ; display: inline ; float: none&quot;&gt;Delete all cards and comparisons&lt;/span&gt;" style="rounded=0;whiteSpace=wrap;html=1;fontSize=7;fillColor=#d5e8d4;strokeColor=#82b366;labelBackgroundColor=none;" parent="WIyWlLk6GJQsqaUBKTNV-1" vertex="1">
                    <mxGeometry x="460" y="730" width="120" height="60" as="geometry"/>
                </mxCell>
                <mxCell id="nCoyNoLL6VT5nCh0kXBd-36" value="Event handler" style="endArrow=none;dashed=1;html=1;fontSize=8;exitX=0.5;exitY=0;exitDx=0;exitDy=0;entryX=0.5;entryY=1;entryDx=0;entryDy=0;startArrow=classic;startFill=1;labelBorderColor=#000000;" parent="WIyWlLk6GJQsqaUBKTNV-1" edge="1">
                    <mxGeometry x="0.3333" y="-30" width="50" height="50" relative="1" as="geometry">
                        <mxPoint x="369.71000000000026" y="660" as="sourcePoint"/>
                        <mxPoint x="369.71000000000026" y="630" as="targetPoint"/>
                        <mxPoint as="offset"/>
                    </mxGeometry>
                </mxCell>
                <mxCell id="nCoyNoLL6VT5nCh0kXBd-37" value="Event handler" style="endArrow=none;dashed=1;html=1;fontSize=8;exitX=0.5;exitY=0;exitDx=0;exitDy=0;entryX=0.5;entryY=1;entryDx=0;entryDy=0;startArrow=classic;startFill=1;labelBorderColor=#000000;" parent="WIyWlLk6GJQsqaUBKTNV-1" edge="1">
                    <mxGeometry x="0.3333" y="-30" width="50" height="50" relative="1" as="geometry">
                        <mxPoint x="519.7100000000003" y="660" as="sourcePoint"/>
                        <mxPoint x="519.7100000000003" y="630" as="targetPoint"/>
                        <mxPoint as="offset"/>
                    </mxGeometry>
                </mxCell>
                <mxCell id="nCoyNoLL6VT5nCh0kXBd-53" style="edgeStyle=orthogonalEdgeStyle;rounded=0;orthogonalLoop=1;jettySize=auto;html=1;exitX=0.25;exitY=1;exitDx=0;exitDy=0;entryX=0.5;entryY=0;entryDx=0;entryDy=0;fontSize=8;startArrow=none;startFill=0;endArrow=classic;endFill=1;" parent="WIyWlLk6GJQsqaUBKTNV-1" source="nCoyNoLL6VT5nCh0kXBd-50" target="nCoyNoLL6VT5nCh0kXBd-13" edge="1">
                    <mxGeometry relative="1" as="geometry">
                        <Array as="points">
                            <mxPoint x="270" y="550"/>
                            <mxPoint x="220" y="550"/>
                        </Array>
                    </mxGeometry>
                </mxCell>
                <mxCell id="nCoyNoLL6VT5nCh0kXBd-54" style="edgeStyle=orthogonalEdgeStyle;rounded=0;orthogonalLoop=1;jettySize=auto;html=1;exitX=0.5;exitY=1;exitDx=0;exitDy=0;fontSize=8;startArrow=none;startFill=0;endArrow=classic;endFill=1;" parent="WIyWlLk6GJQsqaUBKTNV-1" source="nCoyNoLL6VT5nCh0kXBd-50" target="nCoyNoLL6VT5nCh0kXBd-23" edge="1">
                    <mxGeometry relative="1" as="geometry">
                        <Array as="points">
                            <mxPoint x="300" y="550"/>
                            <mxPoint x="370" y="550"/>
                        </Array>
                    </mxGeometry>
                </mxCell>
                <mxCell id="nCoyNoLL6VT5nCh0kXBd-55" style="edgeStyle=orthogonalEdgeStyle;rounded=0;orthogonalLoop=1;jettySize=auto;html=1;exitX=0.75;exitY=1;exitDx=0;exitDy=0;fontSize=8;startArrow=none;startFill=0;endArrow=classic;endFill=1;" parent="WIyWlLk6GJQsqaUBKTNV-1" source="nCoyNoLL6VT5nCh0kXBd-50" target="nCoyNoLL6VT5nCh0kXBd-25" edge="1">
                    <mxGeometry relative="1" as="geometry">
                        <Array as="points">
                            <mxPoint x="330" y="540"/>
                            <mxPoint x="520" y="540"/>
                        </Array>
                    </mxGeometry>
                </mxCell>
                <mxCell id="nCoyNoLL6VT5nCh0kXBd-50" value="" style="rounded=1;whiteSpace=wrap;html=1;labelBackgroundColor=#ffffff;fontSize=8;" parent="WIyWlLk6GJQsqaUBKTNV-1" vertex="1">
                    <mxGeometry x="240" y="510" width="120" height="10" as="geometry"/>
                </mxCell>
            </root>
        </mxGraphModel>
    </diagram>
</mxfile>